<svg version="1.1" id="Layer_1" xmlns="http://www.w3.org/2000/svg" xmlns:xlink="http://www.w3.org/1999/xlink" x="0px" y="0px"
	 width="100%" viewBox="0 0 1024 1024" enable-background="new 0 0 1024 1024" xml:space="preserve">
<path fill="#000000" opacity="1.000000" stroke="none" 
	d="
M905.638062,394.216919 
	C902.543823,388.942566 904.297668,385.883148 908.843933,382.898376 
	C921.317444,374.708984 933.515259,366.099731 946.845886,356.954346 
	C929.855713,358.155457 914.118774,359.176788 898.402466,360.452209 
	C895.063843,360.723145 893.136169,360.046936 892.027161,356.660156 
	C886.756897,340.564178 884.531799,345.526154 898.513672,335.664764 
	C914.307678,324.525269 930.216797,313.548676 946.104004,302.541931 
	C947.714233,301.426331 949.161804,299.925812 951.848755,299.624451 
	C954.435242,303.691315 955.756531,308.478912 956.956360,313.206696 
	C957.622253,315.830750 954.757751,316.654449 953.029297,317.764771 
	C939.993591,326.138245 926.910034,334.437469 913.845581,342.766266 
	C912.759277,343.458740 911.702881,344.197968 909.497070,345.676758 
	C919.349731,344.834412 927.868286,344.135773 936.380798,343.370148 
	C945.163330,342.580231 953.945496,341.777893 962.716187,340.868835 
	C965.637878,340.566040 967.257263,341.565582 968.420288,344.360779 
	C973.578918,356.759033 973.657837,356.733337 962.390442,364.271698 
	C951.866455,371.312714 941.328979,378.333557 930.810669,385.382996 
	C929.628357,386.175446 928.531921,387.095978 927.709412,388.965210 
	C935.713989,388.035126 943.721680,387.130554 951.722412,386.168121 
	C960.636047,385.095856 969.542175,383.960999 978.454529,382.877808 
	C980.158447,382.670715 981.943176,382.635223 982.689148,384.602295 
	C984.323975,388.913177 985.838989,393.269440 987.586609,398.116455 
	C981.187988,399.998199 975.160767,399.600006 969.307739,400.115234 
	C952.064758,401.633179 934.782532,402.699310 917.525513,404.066742 
	C909.381348,404.712097 909.391541,404.840942 905.638062,394.216919 
z"/>
<path fill="#000000" opacity="1.000000" stroke="none" 
	d="
M463.706696,945.891235 
	C464.960175,938.404480 466.276978,931.368591 467.349731,924.295654 
	C467.810822,921.255371 468.846527,919.994568 472.222229,920.538086 
	C486.727234,922.873657 484.246948,921.344055 482.218140,933.497864 
	C478.989838,952.837158 475.331146,972.104309 472.051331,991.435364 
	C471.289795,995.923889 469.827087,997.580566 464.862518,996.515015 
	C451.399017,993.625122 453.932587,996.481628 450.714264,983.279480 
	C447.560883,970.343933 444.683441,957.341431 441.616638,944.384399 
	C441.128876,942.323486 440.993286,940.102783 439.595795,938.244629 
	C437.333740,938.497314 436.879059,940.516602 435.951019,941.934692 
	C427.196075,955.313538 418.414368,968.676514 409.846375,982.174805 
	C407.955231,985.153992 406.008911,986.004150 402.498505,985.471008 
	C389.862488,983.552124 389.654480,983.666077 391.687286,971.289856 
	C394.893158,951.771423 398.415771,932.305237 401.708679,912.800781 
	C402.287903,909.369934 403.932556,908.479675 407.254974,909.056580 
	C418.276031,910.970215 418.290802,910.888733 416.438446,921.796265 
	C414.822388,931.312561 413.196533,940.827209 411.597626,950.346313 
	C411.389130,951.587769 410.933716,952.864990 411.887817,954.505188 
	C419.403717,942.654541 426.782135,931.022766 434.157867,919.389404 
	C435.850250,916.720154 437.143738,913.975342 441.458740,915.096985 
	C445.671265,916.192017 449.526306,916.144470 450.610840,922.104187 
	C453.125793,935.924194 456.553162,949.578125 460.623779,963.265137 
	C461.639557,957.619080 462.655304,951.973083 463.706696,945.891235 
z"/>
<path fill="#000000" opacity="1.000000" stroke="none" 
	d="
M605.937988,114.307617 
	C589.985840,113.533463 578.928406,102.002266 578.725647,86.398529 
	C578.500000,69.030899 588.550720,54.886841 603.580505,52.420113 
	C614.342529,50.653816 623.053284,54.969044 629.930908,63.636303 
	C631.863159,62.552574 630.985840,58.510010 633.936707,58.900246 
	C638.025757,59.441021 642.096985,60.417171 646.039185,61.645576 
	C648.095886,62.286472 647.369568,64.489838 647.009949,66.036575 
	C642.682617,84.649963 638.617249,103.332504 633.844116,121.832001 
	C627.589417,146.073288 603.251038,148.108795 585.203003,136.886505 
	C578.411621,132.663635 574.633362,126.418434 573.853821,118.454445 
	C573.545227,115.301514 574.253174,113.086914 578.312866,114.320992 
	C580.688599,115.043182 583.191406,115.354843 585.643982,115.814430 
	C587.756042,116.210205 589.126526,117.305984 590.102417,119.325111 
	C593.497620,126.349915 599.310059,129.511398 607.031555,128.793152 
	C612.813599,128.255310 616.672607,124.349480 618.553772,116.739868 
	C618.968933,115.060814 620.218201,113.381790 619.132874,111.168365 
	C614.851990,111.911858 610.936523,114.555283 605.937988,114.307617 
M624.364685,75.389519 
	C619.614441,67.898468 611.926208,65.234093 604.703552,68.575912 
	C597.685974,71.822845 593.616394,81.790199 595.981750,89.937340 
	C597.785767,96.150581 602.285583,100.099106 608.306824,100.752289 
	C614.738892,101.450050 620.694763,98.315552 623.558411,92.545906 
	C626.185913,87.252106 626.691162,81.752319 624.364685,75.389519 
z"/>
<path fill="#000000" opacity="1.000000" stroke="none" 
	d="
M123.770462,388.724060 
	C123.057808,398.385895 118.819901,405.565521 110.125816,411.007660 
	C120.095459,413.951874 129.067413,416.826263 138.171524,419.192200 
	C142.520401,420.322388 143.832016,421.946808 142.379547,426.491302 
	C139.333084,436.023102 139.526993,436.228790 129.854416,433.516113 
	C106.296616,426.909332 82.797180,420.093567 59.221092,413.553589 
	C55.251656,412.452454 53.819695,410.750549 55.454369,406.843781 
	C55.964989,405.623383 56.271343,404.310577 56.598274,403.021606 
	C57.558735,399.234833 57.839687,394.651642 63.996418,397.879456 
	C60.006500,373.317841 68.059464,359.555695 87.424507,358.121948 
	C102.347336,357.017090 123.913452,366.695496 123.770462,388.724060 
M75.999664,395.162079 
	C79.706062,402.532654 86.024689,405.676880 93.921036,405.597565 
	C102.918343,405.507263 110.063240,396.616180 108.187744,388.313507 
	C106.064728,378.915039 96.383942,373.232483 86.103195,375.350037 
	C77.893860,377.040924 74.026443,384.116730 75.999664,395.162079 
z"/>
<path fill="#000000" opacity="1.000000" stroke="none" 
	d="
M720.792114,832.683350 
	C724.036255,830.338074 725.916016,830.878479 727.761292,834.209900 
	C740.418518,857.061279 753.168457,879.862549 766.099426,902.559753 
	C768.367981,906.541748 768.079956,908.881653 763.713806,910.500732 
	C762.634583,910.901001 761.616760,911.531738 760.660828,912.187683 
	C757.080383,914.644531 753.690979,916.298462 752.022827,910.307007 
	C749.926208,911.119507 749.971802,912.859863 749.364441,914.079407 
	C742.483887,927.894714 726.690979,933.130310 712.886414,926.088928 
	C701.046143,920.049500 692.498169,902.761658 694.927917,889.768677 
	C697.436890,876.351379 709.372803,867.030273 722.960815,867.883179 
	C724.263062,867.964966 725.563049,868.083191 727.264526,868.215759 
	C726.372803,863.411011 723.462097,859.926758 721.464783,856.048157 
	C719.104004,851.463684 716.664856,846.903931 713.964966,842.514771 
	C711.847534,839.072571 712.033203,836.777771 716.098083,835.265991 
	C717.639404,834.692749 719.017761,833.681274 720.792114,832.683350 
M736.584900,910.219238 
	C741.347351,906.294250 743.493591,901.371765 742.159363,895.208984 
	C740.648865,888.231689 737.036865,882.782532 729.935608,880.691101 
	C724.267700,879.021667 719.049744,880.300354 714.899902,884.839294 
	C709.701599,890.524963 709.811279,899.422974 715.189392,906.413391 
	C720.608887,913.457764 728.032593,914.968811 736.584900,910.219238 
z"/>
<path fill="#000000" opacity="1.000000" stroke="none" 
	d="
M178.650269,166.432312 
	C177.087646,164.633331 175.496979,163.110229 177.897842,161.184723 
	C186.455673,154.321350 194.018707,146.166534 203.485367,140.500870 
	C231.719437,123.603165 256.472290,146.745026 260.341187,167.062119 
	C262.613098,178.992798 258.706207,189.053848 250.990341,197.834763 
	C244.153915,205.614868 235.533325,211.467804 227.939880,218.437622 
	C224.870209,221.255142 223.270645,218.995285 221.517181,216.929306 
	C209.888092,203.227814 198.268707,189.518082 186.643463,175.813339 
	C184.059921,172.767639 181.465561,169.731094 178.650269,166.432312 
M231.941345,153.479752 
	C221.018082,146.390060 208.489227,150.376205 197.467941,163.760849 
	C207.596909,175.666199 217.780151,187.635315 228.023758,199.675385 
	C232.480484,196.506851 236.086472,193.574753 239.265961,190.168228 
	C245.555695,183.429367 247.182739,175.729614 243.624161,167.124039 
	C241.327194,161.569397 237.335510,157.385056 231.941345,153.479752 
z"/>
<path fill="#000000" opacity="1.000000" stroke="none" 
	d="
M132.170837,709.678223 
	C146.138062,709.067688 156.557968,714.990662 164.192444,725.601440 
	C169.721558,733.285950 174.323898,741.635620 179.383179,749.661072 
	C180.843750,751.977966 180.406586,753.531067 178.043655,754.971069 
	C158.567245,766.840332 139.114899,778.749451 119.708961,790.733459 
	C117.221451,792.269653 115.873756,791.631775 114.510246,789.334717 
	C110.006966,781.748169 104.961411,774.451721 100.899216,766.640747 
	C84.244186,734.615417 109.381470,712.089783 132.170837,709.678223 
M142.086823,726.265991 
	C138.149796,724.864075 134.220291,725.303284 130.318588,726.384399 
	C114.341385,730.811340 106.217995,745.280273 112.331642,758.668640 
	C113.910233,762.125610 116.126175,765.290100 118.024750,768.603027 
	C119.276459,770.787170 120.853386,771.082153 122.985382,769.763855 
	C134.711975,762.512878 146.466461,755.307007 158.214462,748.090698 
	C159.786133,747.125244 160.852539,745.991638 159.652634,744.058228 
	C155.283295,737.018127 151.516006,729.399780 142.086823,726.265991 
z"/>
<path fill="#000000" opacity="1.000000" stroke="none" 
	d="
M950.950806,651.089783 
	C930.321411,650.175415 916.450562,639.899231 912.221130,622.787781 
	C910.416565,615.486877 911.151550,608.268982 912.827271,601.086304 
	C914.450806,594.126831 916.260193,587.209839 917.819336,580.236572 
	C918.504456,577.172302 919.934509,576.080872 923.089661,576.845459 
	C944.907410,582.132507 966.737915,587.368042 988.587036,592.523987 
	C991.718567,593.263000 992.651978,594.693054 991.828247,597.842590 
	C989.725708,605.882080 988.090210,614.048462 985.837463,622.042847 
	C980.803284,639.907776 968.981079,649.740784 950.950806,651.089783 
M944.069641,598.529541 
	C943.257019,598.348206 942.440430,598.182861 941.632324,597.983215 
	C927.307373,594.444214 927.216675,594.432739 925.500916,609.260559 
	C924.649414,616.619629 926.357483,623.619568 932.443604,628.101624 
	C946.035461,638.111145 968.417969,638.873840 973.684753,614.866638 
	C974.076904,613.078979 974.385132,611.259644 974.951721,609.526794 
	C975.857300,606.757446 974.836792,605.708557 972.087585,605.107605 
	C962.989990,603.119019 953.948242,600.874756 944.069641,598.529541 
z"/>
<path fill="#000000" opacity="1.000000" stroke="none" 
	d="
M982.459473,503.111267 
	C980.573669,503.182190 979.118042,503.254425 976.999573,503.359528 
	C981.829102,509.791779 984.633179,516.375671 983.736389,524.038330 
	C982.009094,538.797424 971.441589,548.274231 955.614807,549.249756 
	C948.483459,549.689331 941.688965,548.395935 935.410339,544.915649 
	C920.700134,536.761780 916.998474,518.385803 927.335632,505.072723 
	C927.819519,504.449524 928.273254,503.802856 928.768616,503.129486 
	C926.938354,501.462769 923.234497,503.482269 922.944885,500.177948 
	C922.571228,495.915070 921.992126,491.513031 923.425781,487.351105 
	C923.953613,485.818726 925.950500,485.977814 927.437622,485.992584 
	C951.389832,486.229919 975.341675,486.499725 999.293945,486.726532 
	C1001.952026,486.751709 1003.270203,487.830597 1003.260498,490.595978 
	C1003.207397,505.699097 1004.333069,502.929749 991.874329,503.124878 
	C988.880310,503.171783 985.884644,503.119293 982.459473,503.111267 
M962.171021,505.113129 
	C961.268799,504.683868 960.398315,504.162354 959.459473,503.839569 
	C949.466614,500.403778 938.528931,505.099091 936.448059,513.690247 
	C934.519287,521.653503 938.225647,528.618347 946.057068,531.747253 
	C954.026733,534.931458 963.697449,531.982422 967.667908,525.157166 
	C971.696594,518.231934 969.903503,510.906250 962.171021,505.113129 
z"/>
<path fill="#000000" opacity="1.000000" stroke="none" 
	d="
M335.422119,887.303101 
	C324.006714,907.469055 312.765442,927.305664 301.525452,947.142944 
	C298.220978,952.974915 298.176849,953.056396 292.574310,949.869019 
	C282.386261,944.072937 283.934784,945.604248 288.809998,936.877197 
	C290.838684,933.245544 292.895630,929.629578 294.909576,925.989807 
	C295.549255,924.833801 296.091248,923.623779 296.874054,922.042114 
	C293.926727,922.248840 291.233978,922.679626 288.559814,922.585022 
	C273.583099,922.055725 261.633514,907.964722 263.398712,893.021973 
	C264.743256,881.640137 270.056244,872.533386 279.471893,866.019958 
	C292.603271,856.936218 311.205719,861.815369 318.334015,876.056396 
	C318.917084,877.221130 319.462952,878.404541 320.034851,879.597534 
	C322.467651,879.085083 322.476471,874.750122 325.561462,876.242188 
	C329.433594,878.114868 333.549408,879.755676 336.588684,882.906738 
	C337.795288,884.157715 336.207855,885.661438 335.422119,887.303101 
M293.727631,910.547302 
	C303.303314,909.555847 308.692108,904.854858 311.109680,895.383911 
	C313.274384,886.903503 306.575623,877.814453 297.818573,877.350098 
	C289.568329,876.912598 281.928040,883.390747 280.355682,892.156738 
	C278.685547,901.467834 282.867706,907.524536 293.727631,910.547302 
z"/>
<path fill="#000000" opacity="1.000000" stroke="none" 
	d="
M277.646301,166.770874 
	C262.748352,159.902786 253.884903,145.199036 255.587051,130.623962 
	C257.278137,116.143539 270.257599,105.860970 284.734619,107.512619 
	C285.544769,107.605049 286.374664,107.524574 287.259644,107.524574 
	C288.509216,105.273666 284.251251,103.097359 286.886719,101.260521 
	C290.414520,98.801758 294.252472,96.746140 298.110077,94.824135 
	C299.556580,94.103416 300.443481,95.727928 301.116638,96.866005 
	C310.192566,112.209763 319.251221,127.563713 328.299774,142.923630 
	C328.632111,143.487762 329.199066,144.310532 329.013214,144.722351 
	C326.907166,149.388748 321.920441,150.318222 318.113434,152.711487 
	C315.619385,154.279373 314.915497,151.338974 313.788116,149.853287 
	C313.494690,149.466568 313.181793,149.094635 312.390839,148.109253 
	C310.194763,155.782928 305.957581,161.466400 299.268097,165.125443 
	C292.446838,168.856552 285.352234,169.309875 277.646301,166.770874 
M276.477234,145.993347 
	C280.986755,151.356262 286.741425,153.286087 293.436249,151.486969 
	C299.143188,149.953308 302.048553,145.572861 303.311920,140.033417 
	C305.037720,132.466232 298.936096,122.508232 291.115051,120.017906 
	C282.780334,117.364014 274.361053,122.108650 272.192841,130.558685 
	C270.727875,136.268082 272.916290,140.937576 276.477234,145.993347 
z"/>
<path fill="#000000" opacity="1.000000" stroke="none" 
	d="
M404.570099,55.400345 
	C412.192749,53.098434 412.165100,53.106373 414.283844,60.488312 
	C418.640778,75.668457 422.911652,90.875160 427.485870,105.989861 
	C428.706512,110.023331 427.703430,111.972641 423.719971,112.763145 
	C422.259552,113.052956 420.798096,113.478348 419.428314,114.057579 
	C415.365997,115.775391 412.287354,115.477028 411.406952,109.671425 
	C407.533203,114.076836 404.336304,118.267548 399.291748,120.456505 
	C382.471375,127.755249 365.161041,118.448380 359.808472,99.090271 
	C354.689636,80.577423 363.741791,64.567551 381.132416,61.233509 
	C386.571259,60.190804 391.679199,61.644512 397.529968,63.407837 
	C395.769287,56.900108 400.098602,56.331963 404.570099,55.400345 
M405.731171,91.572578 
	C404.914886,80.074654 397.640076,73.156433 387.563965,74.295860 
	C379.267761,75.234009 374.100616,82.880898 375.346985,92.375877 
	C376.515259,101.276283 383.651733,107.953308 391.670746,107.648689 
	C399.545441,107.349548 405.320831,101.099380 405.731171,91.572578 
z"/>
<path fill="#000000" opacity="1.000000" stroke="none" 
	d="
M904.077454,704.934692 
	C909.200928,692.108704 914.325623,679.660950 919.421448,667.283325 
	C915.182739,664.425781 909.786743,665.356812 906.004944,669.520569 
	C902.364380,673.528809 900.726013,678.431885 903.119873,683.332581 
	C904.913696,687.004944 904.626465,689.853271 902.854065,693.100952 
	C901.289307,695.968262 900.852905,699.423340 898.092041,702.337280 
	C890.805054,696.540039 887.623535,689.093262 887.798584,680.153625 
	C888.091980,665.171265 899.955811,651.706360 914.187134,649.972168 
	C928.890076,648.180420 945.924866,658.491150 949.477661,672.157837 
	C952.812500,684.986023 949.258789,696.532654 939.266541,705.169800 
	C929.668640,713.466125 918.521362,713.034424 907.322632,708.188171 
	C905.962891,707.599670 904.540344,706.967834 904.077454,704.934692 
M930.073853,671.974487 
	C926.167114,679.263184 923.435547,687.016296 920.534790,694.728516 
	C927.350647,697.054688 932.911499,694.149170 935.814941,687.161438 
	C938.564331,680.544434 936.558472,674.518921 930.073853,671.974487 
z"/>
<path fill="#000000" opacity="1.000000" stroke="none" 
	d="
M138.595245,678.318726 
	C139.175995,702.124207 113.102417,713.971558 96.309189,708.591919 
	C84.303299,704.745850 75.575851,691.736328 75.689079,677.926697 
	C75.789078,665.730225 84.308289,654.917908 96.625069,651.010437 
	C99.714729,650.030273 101.135201,650.912170 102.286568,653.792297 
	C106.483856,664.291687 110.861969,674.718933 115.203011,685.160522 
	C115.762100,686.505188 116.005638,688.065918 117.574188,689.102112 
	C122.222862,687.229553 124.348320,683.401794 124.552200,678.697021 
	C124.772400,673.615601 123.156204,668.268616 118.242928,666.628174 
	C109.443008,663.690125 109.865631,655.753296 106.563416,649.640015 
	C118.425293,645.353149 137.199371,657.015320 138.595245,678.318726 
M97.386581,693.253906 
	C100.134949,694.314087 102.874374,695.570618 106.285393,693.575073 
	C103.043030,685.543823 99.854378,677.645569 96.672806,669.764832 
	C86.584732,673.548584 87.802475,687.894714 97.386581,693.253906 
z"/>
<path fill="#000000" opacity="1.000000" stroke="none" 
	d="
M214.699677,791.174683 
	C225.674438,799.881653 230.956406,810.522461 227.330551,824.251831 
	C223.410126,839.096680 206.366592,850.486084 191.920456,848.298340 
	C177.444733,846.106140 165.033890,831.175964 165.746796,816.328674 
	C166.157455,807.776611 170.204605,800.821472 176.582153,795.155518 
	C179.082169,792.934387 181.024094,793.130859 183.344315,795.592163 
	C190.763351,803.462463 198.350586,811.174438 205.895645,818.925415 
	C207.143143,820.206909 208.504822,821.377319 209.939438,822.716431 
	C214.194244,819.272217 214.519104,814.944397 213.274765,810.755737 
	C211.779572,805.722717 208.325562,801.105591 202.832794,801.400879 
	C193.579605,801.898254 190.858719,794.581604 185.713943,789.840332 
	C192.810898,783.942566 204.064331,784.522217 214.699677,791.174683 
M191.890198,820.609741 
	C189.099930,818.054810 187.010910,814.728271 183.632797,812.841492 
	C178.871933,817.360474 179.272675,824.174133 184.467484,829.575317 
	C189.391632,834.695190 196.478699,835.169128 201.075790,830.683472 
	C200.936676,830.382568 200.864212,830.018616 200.648331,829.790405 
	C197.904251,826.888550 195.139587,824.006226 191.890198,820.609741 
z"/>
<path fill="#000000" opacity="1.000000" stroke="none" 
	d="
M65.919373,526.623901 
	C77.872658,523.553284 78.066231,523.569702 79.528252,535.061462 
	C80.660027,543.957397 81.389687,552.904602 82.285316,561.830322 
	C82.481842,563.788757 82.063858,566.237549 84.109398,567.205872 
	C86.408203,568.294067 88.200043,566.304260 89.792297,564.966492 
	C95.395172,560.259094 96.282448,550.168518 90.574440,545.943726 
	C85.613243,542.271790 85.059563,537.743469 84.754387,532.602600 
	C84.638000,530.642090 84.575119,528.678406 84.490318,526.771606 
	C92.694946,525.579712 105.299294,535.460815 107.212219,549.534058 
	C109.585693,566.995667 100.595741,580.864868 84.627846,584.227417 
	C65.669319,588.219604 50.847824,580.265381 46.445217,563.735840 
	C41.898327,546.664612 49.304790,532.287964 65.919373,526.623901 
M59.305984,558.865295 
	C61.321613,565.705750 64.654869,568.494507 70.985672,568.637024 
	C71.342422,566.454712 69.876808,547.446777 69.280746,545.653076 
	C68.246056,542.539429 66.291519,543.040955 64.265259,544.425049 
	C59.399208,547.748901 58.581135,552.633423 59.305984,558.865295 
z"/>
<path fill="#000000" opacity="1.000000" stroke="none" 
	d="
M758.034424,168.164948 
	C759.713501,168.432831 761.190186,169.008926 762.324585,168.610519 
	C770.980530,165.570343 774.958618,172.839981 781.565430,176.602188 
	C775.004944,182.242783 768.084534,184.095474 760.672852,183.008102 
	C745.105652,180.724258 732.414246,167.065201 733.552368,150.660934 
	C734.567627,136.028564 748.217712,121.348656 763.027039,120.028831 
	C773.649292,119.082169 787.354919,127.313400 792.744019,137.875885 
	C798.022217,148.221252 796.174133,160.667313 788.233826,169.953812 
	C786.190979,172.342987 784.594482,172.033752 782.347351,170.439102 
	C774.071960,164.566696 765.715393,158.808685 757.377686,153.024338 
	C755.210876,151.521103 753.187683,149.762268 750.631592,148.938690 
	C745.596863,155.603210 748.555298,163.518646 758.034424,168.164948 
M778.425659,141.221512 
	C771.660461,133.228134 763.252502,132.246384 757.596008,139.187286 
	C764.359802,144.333588 771.141052,149.379150 778.566406,153.596893 
	C781.660278,149.271317 780.847229,145.563324 778.425659,141.221512 
z"/>
<path fill="#000000" opacity="1.000000" stroke="none" 
	d="
M639.898682,922.959717 
	C636.006165,924.375488 635.657837,922.331055 635.667603,919.571228 
	C635.699829,910.424622 643.312256,900.093445 653.212891,895.921204 
	C673.607422,887.326599 693.387878,899.273682 696.435364,921.486023 
	C699.067749,940.672485 686.146973,951.605957 672.696594,954.970398 
	C657.420898,958.791382 643.869629,950.781189 638.251099,935.135132 
	C636.921204,931.431824 637.316833,929.423218 641.382446,928.041748 
	C650.997559,924.774536 660.480591,921.117371 670.005249,917.586304 
	C672.150391,916.791077 674.247803,915.866882 676.504761,914.945862 
	C675.258972,909.945862 671.833923,907.997009 667.807861,907.322876 
	C662.638062,906.457153 656.465271,907.047852 654.619324,912.012390 
	C651.900574,919.324280 645.976440,920.513062 639.898682,922.959717 
M663.317566,931.875183 
	C661.156006,932.964050 658.466614,932.998474 656.789612,935.037537 
	C659.032410,940.662231 664.962708,943.103271 671.495911,941.164307 
	C678.619507,939.050171 682.326416,933.358521 680.765686,926.235779 
	C674.827576,926.844116 669.628723,929.916138 663.317566,931.875183 
z"/>
<path fill="#000000" opacity="1.000000" stroke="none" 
	d="
M86.331787,315.589417 
	C95.345337,298.004181 110.578384,292.560150 127.252281,300.536072 
	C130.781631,302.224365 131.829910,303.948975 129.926559,307.859344 
	C124.541496,318.922668 119.605377,330.204559 114.443504,341.507355 
	C117.171272,344.147614 119.999290,343.733673 122.912727,342.704102 
	C130.577820,339.995361 134.330643,331.984009 131.046585,324.664459 
	C129.958649,322.239655 129.958832,320.312622 131.231049,318.122314 
	C133.215591,314.705597 134.081131,310.699585 136.938507,307.012238 
	C142.651428,311.059113 145.083313,316.909027 146.031342,323.060699 
	C149.039719,342.581573 131.575439,364.708710 107.763145,357.474701 
	C87.930222,351.449585 79.249275,335.009460 86.331787,315.589417 
M106.083252,332.534058 
	C109.001915,326.279266 111.920578,320.024445 114.850677,313.745148 
	C109.030136,311.483765 104.478172,312.822205 100.993301,317.276581 
	C96.950195,322.444519 96.404922,328.682037 99.574646,333.505737 
	C101.956406,337.130341 103.272690,337.060120 106.083252,332.534058 
z"/>
<path fill="#000000" opacity="1.000000" stroke="none" 
	d="
M882.029236,803.793945 
	C870.606140,823.153076 850.451233,827.305786 835.103638,813.899597 
	C831.955139,811.149353 831.511963,809.131836 834.441223,805.745972 
	C841.630432,797.436096 848.411560,788.772766 855.331604,780.231140 
	C856.147400,779.224121 857.294678,778.377625 857.355347,776.318176 
	C853.852539,773.325317 849.629883,773.434021 845.553467,775.097961 
	C840.391663,777.205200 836.440002,781.285095 837.381653,786.971619 
	C838.864868,795.928955 831.603577,799.121155 828.118958,805.097656 
	C820.139221,796.744934 820.802002,781.718140 828.960632,771.439453 
	C839.321106,758.386780 854.463257,755.207520 868.025513,763.514465 
	C883.025818,772.702332 889.892944,788.487305 882.029236,803.793945 
M852.085999,802.165588 
	C850.306274,804.269104 851.456421,805.414246 853.441162,806.262817 
	C858.304810,808.342224 865.204102,805.388306 868.703430,799.738281 
	C872.067993,794.305542 871.376282,788.485107 866.503540,784.398926 
	C861.820435,790.140442 857.136108,795.883423 852.085999,802.165588 
z"/>
<path fill="#000000" opacity="1.000000" stroke="none" 
	d="
M805.661621,207.689209 
	C807.126587,208.186401 808.311096,208.940887 809.336426,208.765320 
	C818.381958,207.216400 821.742981,214.796844 827.965027,219.762253 
	C821.997314,223.744431 816.251404,225.094803 810.046448,223.890274 
	C796.451172,221.251068 787.495605,212.819824 784.294312,199.709274 
	C781.080505,186.547684 787.059875,175.988602 797.358459,167.923630 
	C806.968323,160.398102 817.530579,158.562607 828.524475,164.654312 
	C839.404907,170.683182 846.367676,179.634033 846.234436,192.625565 
	C846.143982,201.454468 841.644409,208.386826 835.408081,214.344055 
	C832.947876,216.694183 831.377319,215.216354 829.551758,213.490356 
	C821.694763,206.061966 813.785461,198.688690 805.869568,191.322891 
	C804.549011,190.094086 803.441467,188.562851 801.628723,187.965973 
	C795.740417,193.512100 797.241943,201.410416 805.661621,207.689209 
M810.669800,180.298248 
	C816.523254,185.803711 822.376648,191.309174 828.293701,196.874451 
	C832.684265,190.985580 831.959534,184.811844 827.087402,179.993973 
	C822.652405,175.608368 814.865234,174.686554 810.622314,178.062607 
	C810.048645,178.519089 809.893860,179.133530 810.669800,180.298248 
z"/>
<path fill="#000000" opacity="1.000000" stroke="none" 
	d="
M941.190369,472.602448 
	C941.225342,474.286011 941.225342,475.582001 941.225342,476.854980 
	C934.048157,477.619110 924.782471,471.506226 920.658325,463.440735 
	C914.673340,451.736145 916.234741,436.529297 924.308899,427.887756 
	C933.225281,418.344727 949.830994,414.910034 961.665588,420.160980 
	C974.670227,425.931000 981.829346,440.251282 979.032104,454.898895 
	C976.607788,467.593750 964.950439,477.164886 951.135986,477.982574 
	C947.973633,478.169769 947.114563,476.528564 946.735779,473.885529 
	C945.132446,462.697021 943.457458,451.518799 941.803894,440.337555 
	C941.588867,438.883514 941.775818,437.305603 940.224915,435.805969 
	C935.588684,436.658966 932.588379,439.567230 931.068787,444.125214 
	C929.401672,449.125854 929.804016,454.756073 933.987732,457.377228 
	C940.013123,461.152313 940.346741,466.534485 941.190369,472.602448 
M965.629883,449.979401 
	C965.796326,439.452118 961.338989,433.986115 952.376343,434.461395 
	C953.625977,443.015717 954.366333,451.589478 956.625061,460.049500 
	C962.094299,458.699066 964.238525,455.128754 965.629883,449.979401 
z"/>
<path fill="#000000" opacity="1.000000" stroke="none" 
	d="
M384.873779,904.188599 
	C393.282562,915.224609 393.705933,928.590698 386.272217,940.907715 
	C379.725677,951.754700 368.000610,957.180359 355.595032,955.103210 
	C342.051270,952.835510 332.010040,943.434326 329.193939,930.384949 
	C326.597382,918.352966 333.313873,903.272644 344.133423,896.841675 
	C355.673889,889.982117 371.166840,891.725220 381.798889,901.102295 
	C382.796112,901.981934 383.688812,902.980103 384.873779,904.188599 
M346.648132,933.560486 
	C350.169250,938.863770 355.006226,941.563232 361.442902,940.706421 
	C367.995911,939.834229 371.496582,935.381653 373.687775,929.638672 
	C374.333435,927.946472 374.741638,926.145752 375.091339,924.361938 
	C376.329010,918.048462 373.848480,912.292542 368.741699,909.439392 
	C362.617737,906.017944 356.041687,906.535767 351.313751,911.398315 
	C345.430237,917.449402 343.408661,924.652649 346.648132,933.560486 
z"/>
<path fill="#000000" opacity="1.000000" stroke="none" 
	d="
M816.121460,866.663269 
	C808.786377,884.070129 791.949036,892.619751 776.148254,887.289307 
	C761.853210,882.466797 751.954102,865.485413 755.087158,851.159851 
	C758.616699,835.021606 773.858582,823.960327 790.115417,825.739258 
	C804.411072,827.303589 817.203979,841.934875 817.369629,856.916260 
	C817.404602,860.083252 817.354065,863.242432 816.121460,866.663269 
M801.716919,857.013367 
	C800.936462,852.196594 798.231689,848.424316 794.905029,845.119324 
	C789.292542,839.543518 782.540039,838.882568 776.369629,843.064819 
	C770.680176,846.920898 768.651245,854.432739 771.459595,861.243530 
	C774.679749,869.053223 783.044495,874.682983 789.614136,873.462158 
	C797.619019,871.974670 801.791748,866.619690 801.716919,857.013367 
z"/>
<path fill="#000000" opacity="1.000000" stroke="none" 
	d="
M485.590942,59.539650 
	C487.205841,59.331360 488.352448,59.109570 489.509644,58.990814 
	C497.994476,58.120087 498.063660,58.319424 498.483887,66.793007 
	C498.639954,69.940010 497.941467,71.336090 494.560059,71.496658 
	C488.921600,71.764397 483.311249,72.581535 477.674835,72.949341 
	C474.338104,73.167076 473.485504,74.609962 474.025909,77.799202 
	C474.522614,80.730560 474.358215,83.769836 474.558350,86.756653 
	C474.794830,90.286186 476.277100,92.196152 480.267822,91.706215 
	C486.199127,90.978020 492.188934,90.730125 498.123444,90.022705 
	C501.749603,89.590446 504.244781,90.406181 504.004120,94.489471 
	C503.801697,97.923668 506.720490,102.944977 499.740906,103.410347 
	C488.122864,104.184998 476.516602,105.152718 464.915680,106.158066 
	C461.587372,106.446503 460.014069,105.328529 459.753632,101.872116 
	C458.143250,80.501442 456.345062,59.144741 454.782806,37.770714 
	C454.254395,30.540874 454.713226,30.340940 462.002319,29.840099 
	C472.451263,29.122149 482.914673,28.509632 493.327881,27.428234 
	C497.499725,26.994989 499.128662,28.160080 499.323517,32.311821 
	C499.686829,40.054539 499.300049,40.636066 491.402527,41.202507 
	C486.097473,41.583004 480.790894,41.941479 475.485504,42.317669 
	C474.823364,42.364616 473.943115,42.210629 473.538116,42.570667 
	C468.777557,46.802990 473.131836,51.856392 472.408966,56.496330 
	C472.016602,59.014790 473.731659,60.025654 476.148590,59.917904 
	C479.140747,59.784496 482.134521,59.686913 485.590942,59.539650 
z"/>
<path fill="#000000" opacity="1.000000" stroke="none" 
	d="
M48.187813,448.530426 
	C53.724197,435.599335 62.987064,428.631683 76.913025,428.734100 
	C90.003548,428.830353 100.507965,434.007751 105.719536,446.395325 
	C111.014343,458.980774 109.499847,471.285095 100.410248,481.897858 
	C92.944130,490.615021 78.246735,493.422272 65.713158,488.694336 
	C53.348377,484.030060 47.216824,474.505493 46.104500,461.649902 
	C45.731457,457.338501 46.756851,453.052246 48.187813,448.530426 
M81.475464,445.817383 
	C78.867943,445.045807 76.179123,445.138885 73.544960,445.371796 
	C62.672295,446.333130 56.827686,458.899200 63.048950,467.797058 
	C68.549644,475.664276 83.436562,477.316101 90.286423,470.608459 
	C94.237228,466.739685 95.637115,461.915985 93.989876,456.428864 
	C92.220589,450.535217 87.924019,447.529510 81.475464,445.817383 
z"/>
<path fill="#000000" opacity="1.000000" stroke="none" 
	d="
M697.281006,107.291862 
	C692.635864,116.729599 688.069946,125.803543 683.773560,135.003342 
	C682.249329,138.267197 680.693848,139.141281 677.294067,137.349731 
	C665.239075,130.997284 666.455444,133.792526 672.038696,122.148178 
	C678.373901,108.935707 685.011719,95.867294 691.251953,82.611023 
	C692.922058,79.063354 694.700073,78.082794 698.099182,80.092705 
	C699.668823,81.020859 701.358459,81.781708 703.063049,82.438622 
	C706.598511,83.801094 708.645142,85.690788 704.977539,90.497513 
	C713.257812,88.352142 720.078186,89.254684 726.400635,93.128639 
	C736.602356,99.379601 740.804932,109.910950 736.250244,121.030945 
	C731.589844,132.409088 725.817810,143.331909 720.529053,154.452469 
	C720.386353,154.752655 720.280334,155.160934 720.032410,155.307098 
	C714.784668,158.401138 711.764160,153.063889 707.632080,151.920105 
	C704.694519,151.106964 705.324768,148.913879 706.417358,146.704285 
	C710.844971,137.749527 715.395081,128.845367 719.485657,119.736496 
	C724.189697,109.261749 717.393311,99.945885 706.226440,101.050949 
	C702.161621,101.453201 699.597229,103.837479 697.281006,107.291862 
z"/>
<path fill="#000000" opacity="1.000000" stroke="none" 
	d="
M571.773865,67.270813 
	C571.037598,79.142860 570.171936,90.583115 569.505005,102.034935 
	C569.311157,105.364265 567.779053,106.162308 564.712219,106.062004 
	C553.189087,105.685158 552.876709,105.149559 554.172363,93.643730 
	C555.046265,85.882713 555.426697,78.040443 555.545471,70.227203 
	C555.667908,62.169033 551.097961,57.437035 543.635376,57.095737 
	C535.675781,56.731709 531.011047,60.800610 530.252319,69.235054 
	C529.417847,78.510193 528.689880,87.805290 528.323669,97.107758 
	C528.143372,101.687271 526.821228,104.116447 521.848511,103.222099 
	C520.874390,103.046906 519.853333,103.141411 518.855103,103.089478 
	C511.841675,102.724663 511.795197,102.394005 512.384766,95.388008 
	C513.333069,84.118187 513.919861,72.817970 514.663025,61.530830 
	C515.001770,56.385338 515.374573,51.241913 515.679077,46.094421 
	C515.788208,44.250702 516.212891,42.706013 518.434082,42.727013 
	C521.929871,42.760059 525.424622,42.900955 528.919739,42.999390 
	C532.270386,43.093758 530.727600,46.400322 531.984680,47.841267 
	C556.441406,39.502815 569.209351,45.632332 571.773865,67.270813 
z"/>
<path fill="#000000" opacity="1.000000" stroke="none" 
	d="
M112.090057,625.121094 
	C96.804077,635.468689 81.819321,645.616821 66.322830,656.111511 
	C63.554375,650.887146 62.965515,645.783020 62.153774,640.819824 
	C61.856365,639.001404 64.099884,638.315247 65.465210,637.448730 
	C75.303383,631.205505 85.169586,625.006409 95.017311,618.778259 
	C96.514626,617.831177 97.962349,616.805664 100.015099,615.424927 
	C92.642021,613.579224 85.770248,614.239319 79.056541,613.373413 
	C73.128593,612.608887 67.120125,612.315247 61.138546,612.169495 
	C56.521992,612.056885 53.571766,610.593445 53.012959,605.556335 
	C52.653339,602.314697 50.914585,599.285217 51.158604,595.779785 
	C54.731396,594.176208 58.208252,595.602478 61.536327,595.946960 
	C77.903427,597.640869 94.226128,599.759644 110.583847,601.551880 
	C113.569542,601.879028 115.096603,602.986267 115.544846,605.975952 
	C115.862892,608.097290 116.724815,610.130737 117.208923,612.234497 
	C119.339790,621.494690 120.407074,619.367004 112.090057,625.121094 
z"/>
<path fill="#000000" opacity="1.000000" stroke="none" 
	d="
M881.550476,757.424866 
	C875.074524,749.348145 868.919006,741.467041 862.507629,733.799744 
	C860.416687,731.299377 860.516846,729.330017 862.028259,726.656799 
	C868.877075,714.543396 868.839417,714.382568 882.423157,716.718323 
	C897.517761,719.313904 912.569275,722.161438 927.633057,724.934204 
	C929.068298,725.198364 930.615845,725.376404 931.778809,727.030518 
	C930.310974,731.306335 927.520081,735.046692 925.161621,738.997620 
	C923.677185,741.484314 921.312683,740.396057 919.283264,739.938354 
	C907.603149,737.304382 895.934998,734.616333 884.277527,731.883911 
	C882.967529,731.576843 881.732239,731.237854 880.386719,731.567993 
	C880.172546,733.514282 881.651306,734.299866 882.583252,735.379578 
	C890.420776,744.460999 898.215698,753.580688 906.168152,762.560669 
	C908.262451,764.925598 908.667358,767.010986 906.930908,769.680481 
	C904.858521,772.866211 902.976013,776.175476 900.243896,780.702698 
	C893.696838,772.551331 887.734131,765.127502 881.550476,757.424866 
z"/>
<path fill="#000000" opacity="1.000000" stroke="none" 
	d="
M351.441864,120.702362 
	C352.317352,120.757408 352.819183,120.781410 353.314972,120.737312 
	C356.282227,120.473419 359.176849,117.081741 361.731995,118.742943 
	C365.122314,120.947083 365.448456,125.562691 366.988068,129.129318 
	C354.065216,141.113892 339.140564,138.192505 332.296997,122.491547 
	C329.370209,115.776741 326.417969,109.073036 323.504669,102.352409 
	C322.526703,100.096336 321.285095,98.620308 318.557495,99.982246 
	C316.260742,101.129066 314.803711,100.287292 313.945831,97.935646 
	C313.205200,95.905434 312.339355,93.916229 311.437134,91.951004 
	C310.603027,90.134094 310.775299,88.607056 312.739227,87.848900 
	C316.278290,86.482689 315.965393,84.194908 314.565247,81.461304 
	C313.960205,80.280022 313.674713,78.923874 313.002930,77.790009 
	C310.689148,73.884766 312.028503,71.580544 316.063171,70.317650 
	C316.536285,70.169571 316.968475,69.895683 317.431702,69.710320 
	C325.981995,66.288689 325.078766,64.564896 328.997314,74.320000 
	C330.727264,78.626724 332.831635,79.593491 336.931274,77.489784 
	C339.002014,76.427177 341.608002,74.012177 343.739532,76.077354 
	C346.210846,78.471725 347.477875,82.075813 347.939728,85.509689 
	C348.265747,87.933258 345.439056,88.280663 343.699677,89.040710 
	C336.858551,92.029968 336.836090,91.993423 339.778595,98.855721 
	C342.272217,104.671135 344.784668,110.478462 347.279602,116.293304 
	C348.077393,118.152718 348.886383,119.989433 351.441864,120.702362 
z"/>
<path fill="#000000" opacity="1.000000" stroke="none" 
	d="
M842.728638,857.270264 
	C827.972351,842.323669 813.541565,827.550842 798.898315,812.991760 
	C795.937805,810.048157 795.952087,808.260498 798.916260,805.365845 
	C806.660645,797.803345 806.532166,797.675781 814.189392,805.464600 
	C829.249756,820.783875 844.246216,836.166931 859.431763,851.361084 
	C862.376221,854.307312 862.399841,856.084229 859.300476,858.940063 
	C851.490479,866.136414 851.624268,866.281494 844.039001,858.579590 
	C843.688354,858.223572 843.332642,857.872681 842.728638,857.270264 
z"/>
<path fill="#000000" opacity="1.000000" stroke="none" 
	d="
M54.002281,516.017822 
	C45.190155,515.801392 36.877884,515.473389 28.564423,515.439819 
	C25.077929,515.425720 23.993967,513.986755 23.895000,510.656036 
	C23.565327,499.560852 23.471041,499.554962 34.386955,499.617371 
	C55.682838,499.739166 76.978790,499.853424 98.274414,500.010895 
	C104.604980,500.057709 104.780693,500.303589 104.444611,506.463043 
	C103.906670,516.321594 103.906540,516.348999 93.931831,516.298950 
	C80.788315,516.232971 67.645035,516.118652 54.002281,516.017822 
z"/>
<path fill="#000000" opacity="1.000000" stroke="none" 
	d="
M197.572388,877.604492 
	C212.222748,860.118347 226.729156,842.972778 241.002747,825.635498 
	C243.952103,822.053040 245.918900,821.404480 249.689621,824.756409 
	C258.809875,832.863953 257.431610,830.811157 250.947983,838.715698 
	C237.129578,855.562317 222.951904,872.114258 209.139893,888.966003 
	C206.420410,892.283936 204.371872,892.384583 201.553940,889.573486 
	C200.499634,888.521729 199.326538,887.537354 198.062820,886.756592 
	C193.733749,884.081665 193.297058,881.183655 197.572388,877.604492 
z"/>
<path fill="#000000" opacity="1.000000" stroke="none" 
	d="
M142.530670,280.464447 
	C149.481171,284.775726 156.065277,288.993988 162.789627,292.975342 
	C165.805573,294.761047 166.603622,296.352325 164.517853,299.644806 
	C158.521164,309.110901 158.611465,309.280884 148.884644,303.341980 
	C136.394409,295.715851 124.040665,287.865631 111.524239,280.283417 
	C108.089157,278.202515 107.118698,276.104736 109.816238,272.830597 
	C110.549263,271.940857 111.143738,270.905029 111.643280,269.860443 
	C113.697510,265.564819 116.224297,262.744385 121.613205,267.406281 
	C120.336823,260.247528 119.948769,254.051453 124.607712,248.331909 
	C128.930664,250.182953 132.733627,252.783524 136.561050,255.343567 
	C138.515854,256.651123 137.665619,258.082184 136.913483,259.656738 
	C131.622833,270.732300 132.355499,273.514954 142.530670,280.464447 
z"/>
<path fill="#000000" opacity="1.000000" stroke="none" 
	d="
M609.553345,922.342285 
	C606.199463,907.955627 605.429016,911.703064 618.562439,907.824402 
	C621.203430,907.044373 622.608704,908.123108 623.226318,910.755432 
	C627.214478,927.752747 631.220154,944.746094 635.315430,961.717834 
	C636.074646,964.864319 635.047058,966.432434 631.941895,966.971191 
	C629.977539,967.311951 627.999695,967.713745 626.115112,968.347473 
	C622.310120,969.626953 619.564026,969.154358 619.132141,963.840332 
	C615.282593,967.054138 612.790222,970.870605 608.693909,972.791199 
	C604.055359,974.966064 603.137512,974.618774 601.856567,969.589722 
	C601.692566,968.945679 601.634277,968.274963 601.475891,967.629211 
	C599.503357,959.586914 599.500977,959.587524 607.110229,956.208984 
	C612.372681,953.872375 614.319336,950.800598 613.995178,944.768311 
	C613.590210,937.233032 610.919373,930.125061 609.553345,922.342285 
z"/>
<path fill="#000000" opacity="1.000000" stroke="none" 
	d="
M884.781555,229.774384 
	C883.587646,230.718643 882.652100,231.416367 881.747742,232.152328 
	C875.745483,237.036224 875.747681,237.038925 869.824280,231.961960 
	C864.495789,227.394928 859.455200,227.292007 853.154358,232.225571 
	C846.207397,237.665009 839.415710,243.319336 832.795654,249.151642 
	C830.004089,251.610947 828.256348,251.629166 825.965210,248.641556 
	C818.100220,238.386169 817.229370,241.192490 827.134033,232.962082 
	C838.152344,223.806305 849.162781,214.641068 860.185791,205.491043 
	C865.312683,201.235382 865.320740,201.248734 869.400574,206.210297 
	C870.035400,206.982361 870.612000,207.829391 871.357544,208.478790 
	C874.915955,211.578415 875.979065,214.609177 870.485962,217.846649 
	C875.910400,219.521591 881.012146,220.303589 884.858337,223.921082 
	C886.898926,225.840454 887.808594,227.568375 884.781555,229.774384 
z"/>
<path fill="#000000" opacity="1.000000" stroke="none" 
	d="
M268.509308,862.476135 
	C260.172363,873.875183 252.043655,884.981140 244.009247,895.958252 
	C242.921082,895.592773 242.403091,895.517883 241.993011,895.266785 
	C229.955109,887.893738 229.958466,887.892090 238.246826,876.568970 
	C246.601776,865.154846 255.060013,853.813782 263.236938,842.273499 
	C265.511993,839.062561 267.173950,838.716125 270.335938,841.141541 
	C279.122528,847.881592 279.215729,847.751465 272.488586,856.899719 
	C271.206940,858.642700 269.973328,860.421021 268.509308,862.476135 
z"/>
<path fill="#000000" opacity="1.000000" stroke="none" 
	d="
M647.740356,110.834587 
	C652.444031,97.632301 657.115417,84.837074 661.547791,71.959572 
	C662.748352,68.471634 664.316406,67.706383 667.776428,69.070618 
	C679.332581,73.627090 678.837891,70.716064 674.414673,83.248596 
	C669.494629,97.188675 664.388977,111.065285 659.660767,125.069687 
	C658.355713,128.935150 656.586609,129.488586 653.069214,128.133224 
	C641.362061,123.621994 642.797729,125.606133 646.501099,114.516472 
	C646.869507,113.413239 647.245605,112.312561 647.740356,110.834587 
z"/>
<path fill="#000000" opacity="1.000000" stroke="none" 
	d="
M865.146973,301.151550 
	C860.605408,298.429779 858.203186,294.816040 859.108826,289.795288 
	C860.020935,284.738464 865.061707,281.616150 869.983093,282.700775 
	C875.220825,283.855103 878.648926,289.682678 877.276184,295.098785 
	C876.038940,299.980377 871.155579,302.549866 865.146973,301.151550 
z"/>
<path fill="#000000" opacity="1.000000" stroke="none" 
	d="
M674.461853,64.909630 
	C665.751221,61.266968 663.541626,53.630939 669.415344,48.617725 
	C673.052673,45.513321 676.991882,45.523151 680.931030,47.926060 
	C684.807495,50.290668 686.015686,53.936394 685.118835,58.239780 
	C684.230408,62.502518 680.651855,64.763237 674.461853,64.909630 
z"/>
<path fill="#000000" opacity="1.000000" stroke="none" 
	d="
M554.679016,937.251221 
	C547.770935,937.069031 543.995605,933.911743 543.735962,928.480408 
	C543.506592,923.682007 546.878906,919.912354 552.178589,919.043030 
	C557.127502,918.231262 561.571228,921.086365 562.844604,925.895813 
	C564.194092,930.992737 561.425537,935.041504 554.679016,937.251221 
z"/>
<path fill="#000000" opacity="1.000000" stroke="none" 
	d="
M185.615845,239.725677 
	C190.474335,235.728851 194.379684,235.164185 197.967636,238.030762 
	C201.354904,240.736969 202.824066,244.274399 201.295395,248.595795 
	C199.789047,252.854034 195.640701,255.591843 191.313721,255.299347 
	C183.968231,254.802826 181.037766,247.270401 185.615845,239.725677 
z"/>
<path fill="#000000" opacity="1.000000" stroke="none" 
	d="
M231.043304,895.514893 
	C236.827042,899.030823 238.674545,903.347961 236.722000,908.054443 
	C235.001633,912.201355 230.878220,914.204651 226.035004,913.246582 
	C221.045197,912.259521 217.723160,907.079590 218.760376,901.903503 
	C219.815659,896.637268 224.408875,894.116577 231.043304,895.514893 
z"/>
</svg>